# Blender v2.79 (sub 5) OBJ File: 'DAIV6.blend'
# www.blender.org
mtllib top.mtl
o Top_Cube.008
v 1.262421 0.296344 -0.606675
v 1.262421 0.296344 -0.649221
v 1.304968 0.296344 -0.606675
v 1.304968 0.296344 -0.649221
v 0.000000 0.349605 1.328776
v 1.341771 0.353286 -0.673665
v 1.215088 0.341649 1.319522
v 1.476152 0.326838 1.292182
v 0.000000 0.353978 -0.675813
v -1.217281 0.342210 1.284761
v 1.235976 0.285544 -0.568243
v 1.333160 0.285544 -0.568243
v 1.235976 0.347511 -0.707258
v 1.235976 0.319502 -0.734777
v 1.235976 0.352758 -0.673843
v 1.333160 0.296234 -0.728445
v 1.333160 0.347511 -0.707044
v 1.333160 0.319502 -0.730248
v -1.262421 0.296344 -0.606675
v -1.262421 0.296344 -0.649221
v -1.304968 0.296344 -0.606675
v 1.235976 0.296234 -0.733027
v -1.304968 0.296344 -0.649221
v 0.000000 0.299210 -0.365615
v 0.000000 0.299210 1.196219
v 1.333160 0.352670 -0.673678
v 1.235976 0.287001 -0.695791
v 0.000000 0.290677 1.196219
v 0.000000 0.290677 1.325600
v 0.000000 0.290677 -0.558314
v 0.000000 0.290677 -0.365615
v 1.333160 0.287001 -0.693501
v 1.388297 0.299210 1.196219
v 1.388297 0.299210 -0.365615
v 1.477495 0.290677 1.282824
v 1.224663 0.290677 1.313332
v 1.235973 0.291114 -0.560669
v 1.235973 0.290677 -0.558314
v 1.333160 0.291114 -0.560669
v -0.760496 0.344800 1.322985
v 1.333160 0.290677 -0.558314
v 1.388297 0.290677 1.196219
v 1.388297 0.290677 -0.365615
v 0.000000 0.290678 1.301162
v 0.000000 0.290678 1.290701
v 0.000000 0.290678 1.295932
v 0.000000 0.290676 -0.531015
v 0.000000 0.290676 -0.541476
v 0.000000 0.288434 -0.536245
v 1.443541 0.290676 -0.531015
v 1.453946 0.290676 -0.541476
v 1.448743 0.288434 -0.536245
v 1.455965 0.290678 1.263798
v 1.466506 0.290678 1.273118
v 1.461236 0.288436 1.268458
v 1.223204 0.290678 1.290701
v 1.223871 0.290678 1.301162
v 1.223537 0.288436 1.295932
v 0.403217 0.288436 1.295932
v 0.404433 0.288436 1.295932
v 0.403825 0.290678 1.295932
v 0.403217 0.290678 1.301162
v 0.404433 0.290678 1.301162
v 0.403825 0.290678 1.301162
v 0.404433 0.290678 1.290701
v 0.403217 0.290678 1.290701
v 0.403825 0.290678 1.290701
v 0.316736 0.290678 1.295932
v 0.317560 0.288436 1.295932
v 0.316736 0.290678 1.290701
v 0.317560 0.290678 1.290701
v 0.316735 0.290678 1.301162
v 0.317560 0.290678 1.301162
v 0.289551 0.290676 -0.536245
v 0.286927 0.288434 -0.536245
v 0.289551 0.290676 -0.541476
v 0.286927 0.290676 -0.541476
v 0.286927 0.290676 -0.531015
v 0.289552 0.290676 -0.531015
v 0.403514 0.290676 -0.536245
v 0.406584 0.288434 -0.536245
v 0.406584 0.290676 -0.541476
v 0.403514 0.290676 -0.541476
v 0.403514 0.290676 -0.531015
v 0.406584 0.290676 -0.531015
v -1.341771 0.353286 -0.673665
v 1.262421 0.285990 -0.606675
v 1.262421 0.286476 -0.649221
v 1.304968 0.286486 -0.649221
v 1.304968 0.285991 -0.606675
v 1.263573 0.296069 -0.607827
v 1.263573 0.296069 -0.648069
v 1.303815 0.296069 -0.607827
v 1.303815 0.296069 -0.648069
v 1.303815 0.287823 -0.648069
v 1.263573 0.287354 -0.607827
v 1.303815 0.287355 -0.607827
v 1.263573 0.287814 -0.648069
v -1.215088 0.341649 1.319522
v -1.341654 0.353296 -0.669972
v 0.823668 0.340769 1.322479
v 0.760496 0.344800 1.322985
v 1.217281 0.342210 1.284761
v 0.000000 0.354324 -0.263299
v 1.213406 0.352693 -0.584174
v 0.466199 0.359075 -0.460165
v -1.476152 0.326838 1.292182
v -1.235976 0.285544 -0.568243
v -1.333160 0.285544 -0.568243
v 0.384058 0.358286 0.026831
v 0.000000 0.359505 0.171020
v 0.000000 0.355021 -0.265200
v 1.341654 0.353296 -0.669972
v 0.445052 0.355100 -0.367996
v 0.465349 0.354280 -0.461651
v 1.212107 0.351773 -0.585765
v -1.235976 0.347511 -0.707258
v -1.235976 0.319502 -0.734777
v -1.235976 0.352758 -0.673843
v -1.333160 0.296234 -0.728445
v -1.333160 0.347511 -0.707044
v -1.333160 0.319502 -0.730248
v -1.235976 0.296234 -0.733027
v 0.447098 0.359013 -0.366007
v 0.445891 0.355943 -0.365556
v -1.333160 0.352670 -0.673678
v -1.235976 0.287001 -0.695791
v -1.333160 0.287001 -0.693501
v -1.388297 0.299210 1.196219
v -1.388297 0.299210 -0.365615
v -1.477495 0.290677 1.282824
v -1.224663 0.290677 1.313332
v -1.235973 0.291114 -0.560669
v -1.235973 0.290677 -0.558314
v -1.333160 0.291114 -0.560669
v -1.333160 0.290677 -0.558314
v -1.388297 0.290677 1.196219
v -1.388297 0.290677 -0.365615
v -1.443541 0.290676 -0.531015
v -1.453946 0.290676 -0.541476
v -1.448743 0.288434 -0.536245
v -1.455965 0.290678 1.263798
v -1.466506 0.290678 1.273118
v -1.461236 0.288436 1.268458
v 0.825666 0.344430 1.317531
v -1.223204 0.290678 1.290701
v -1.223871 0.290678 1.301162
v -1.223537 0.288436 1.295932
v -0.403217 0.288436 1.295932
v -0.404433 0.288436 1.295932
v -0.403825 0.290678 1.295932
v -0.403217 0.290678 1.301162
v -0.404433 0.290678 1.301162
v -0.403825 0.290678 1.301162
v -0.404433 0.290678 1.290701
v -0.403217 0.290678 1.290701
v -0.403825 0.290678 1.290701
v -0.316736 0.290678 1.295932
v -0.317560 0.288436 1.295932
v -0.316736 0.290678 1.290701
v -0.317560 0.290678 1.290701
v -0.316735 0.290678 1.301162
v -0.317560 0.290678 1.301162
v -0.289551 0.290676 -0.536245
v -0.286927 0.288434 -0.536245
v -0.289551 0.290676 -0.541476
v -0.286927 0.290676 -0.541476
v -0.286927 0.290676 -0.531015
v -0.289552 0.290676 -0.531015
v -0.403514 0.290676 -0.536245
v -0.406584 0.288434 -0.536245
v -0.406584 0.290676 -0.541476
v -0.403514 0.290676 -0.541476
v -0.403514 0.290676 -0.531015
v -0.406584 0.290676 -0.531015
v -1.262421 0.285990 -0.606675
v -1.262421 0.286476 -0.649221
v -1.304968 0.286486 -0.649221
v -1.304968 0.285991 -0.606675
v -1.263573 0.296069 -0.607827
v -1.263573 0.296069 -0.648069
v -1.303815 0.296069 -0.607827
v -1.303815 0.296069 -0.648069
v -1.303815 0.287823 -0.648069
v -1.263573 0.287354 -0.607827
v -1.303815 0.287355 -0.607827
v -1.263573 0.287814 -0.648069
v -0.823668 0.340769 1.322479
v 1.466043 0.345213 -0.564586
v 1.440522 0.347043 -0.613177
v 1.444342 0.303485 -0.590121
v 1.470805 0.290677 -0.535721
v 1.456619 0.290676 -0.544159
v 1.450740 0.290677 -0.558314
v -1.213406 0.352693 -0.584174
v -0.466199 0.359075 -0.460165
v -0.384058 0.358286 0.026831
v -0.445052 0.355100 -0.367996
v -0.465349 0.354280 -0.461651
v -1.212107 0.351773 -0.585765
v -0.447098 0.359013 -0.366007
v -0.445891 0.355943 -0.365556
v -0.825666 0.344430 1.317531
v -1.466043 0.345213 -0.564586
v -1.440522 0.347043 -0.613177
v -1.444342 0.303485 -0.590121
v -1.470805 0.290677 -0.535721
v -1.456619 0.290676 -0.544159
v -1.450740 0.290677 -0.558314
vn 0.0000 -1.0000 0.0000
vn -0.0088 -0.9688 -0.2478
vn -0.0045 -0.9912 -0.1324
vn -0.0044 -0.9917 -0.1288
vn 0.0000 0.0000 1.0000
vn 0.1587 -0.9772 -0.1409
vn 0.3346 -0.9196 -0.2058
vn 0.0181 0.6711 -0.7411
vn 0.0000 1.0000 -0.0037
vn -0.0000 1.0000 -0.0021
vn -0.0010 1.0000 -0.0003
vn 0.0000 0.0000 -1.0000
vn -0.0001 -0.9999 -0.0115
vn -0.1058 -0.1618 0.9811
vn 0.0044 -0.9917 -0.1288
vn 0.0001 -0.9999 -0.0115
vn 0.0045 -0.9912 -0.1324
vn -0.2310 0.9120 -0.3389
vn 0.0583 0.9983 0.0094
vn 0.0585 0.9982 0.0148
vn 0.0583 0.9982 0.0103
vn -0.4844 -0.6390 -0.5975
vn -0.1740 -0.9476 -0.2680
vn -0.1587 -0.9772 -0.1409
vn -0.3346 -0.9196 -0.2058
vn -0.0000 0.8809 0.4734
vn 0.0088 -0.9688 -0.2478
vn -0.0001 -0.8806 -0.4738
vn 0.0000 -0.8806 -0.4738
vn 0.0000 -0.8056 0.5925
vn 0.0467 -0.0760 -0.9960
vn 0.0000 1.0000 0.0068
vn 0.0079 0.9999 0.0068
vn 0.0023 1.0000 -0.0013
vn 0.0000 1.0000 0.0006
vn -1.0000 -0.0000 -0.0000
vn 1.0000 0.0000 0.0000
vn 0.1058 -0.1618 0.9811
vn 0.0007 0.9881 -0.1540
vn 0.0000 -0.0850 0.9964
vn -0.0085 -0.0850 0.9963
vn -0.8791 -0.4767 -0.0001
vn -0.8745 -0.4742 -0.1017
vn -0.0000 -0.9832 -0.1825
vn 0.0000 1.0000 -0.0093
vn 0.0033 1.0000 -0.0093
vn -0.0023 1.0000 -0.0013
vn -0.0554 0.7918 0.6083
vn -0.1974 -0.9330 0.3009
vn -0.3853 -0.9023 0.1934
vn -0.3928 -0.9196 -0.0000
vn -0.1889 -0.9820 -0.0000
vn 0.0000 1.0000 0.0000
vn 0.9063 0.3827 0.1793
vn 0.0227 -0.9194 -0.3927
vn 0.0225 -0.9194 -0.3927
vn -0.0000 -0.9191 -0.3940
vn 0.9276 0.3429 -0.1482
vn -0.0000 -1.0000 -0.0001
vn 0.1381 0.5092 -0.8495
vn 0.0001 -0.8806 -0.4738
vn -0.3935 -0.9193 -0.0027
vn 0.0452 -0.9192 0.3911
vn 0.0227 -0.9194 0.3926
vn 0.0225 -0.9194 0.3926
vn -0.0452 -0.9192 -0.3912
vn -0.0227 -0.9194 -0.3927
vn -0.0225 -0.9194 -0.3927
vn -0.3935 -0.9193 0.0027
vn 0.3935 -0.9193 -0.0027
vn 0.0000 -0.9191 0.3939
vn 0.4844 -0.6390 -0.5975
vn 0.1740 -0.9476 -0.2680
vn -0.0227 -0.8890 -0.4573
vn 0.0392 -0.8550 -0.5172
vn 0.1974 -0.9330 -0.3009
vn 0.1889 -0.9820 -0.0000
vn -0.3853 -0.9023 -0.1934
vn -0.1974 -0.9330 -0.3009
vn 0.3430 -0.9394 -0.0000
vn 0.1657 -0.9862 -0.0000
vn 0.1714 -0.9379 -0.3015
vn 0.3362 -0.9209 -0.1974
vn 0.8745 -0.4743 0.1016
vn 0.8791 -0.4767 -0.0001
vn -0.8745 -0.4742 0.1017
vn -0.8791 -0.4767 0.0000
vn 0.8745 -0.4742 -0.1017
vn -0.8745 -0.4742 -0.1016
vn -0.7992 -0.5878 0.1259
vn -0.8056 -0.5925 -0.0000
vn -0.7992 -0.5878 -0.1260
vn 0.2310 0.9120 -0.3389
vn -0.0079 0.9999 0.0068
vn -0.0016 1.0000 0.0022
vn 0.7992 -0.5878 0.1259
vn 0.8056 -0.5925 -0.0000
vn -0.1714 -0.9380 0.3014
vn -0.1657 -0.9862 -0.0000
vn -0.0000 -0.9191 0.3940
vn 0.3853 -0.9023 -0.1934
vn 0.3928 -0.9196 -0.0000
vn 0.1974 -0.9330 0.3009
vn 0.3853 -0.9023 0.1934
vn -0.3362 -0.9209 0.1973
vn -0.3430 -0.9394 -0.0000
vn -0.3362 -0.9209 -0.1974
vn -0.1714 -0.9379 -0.3015
vn -0.8745 -0.4743 0.1016
vn 0.1714 -0.9380 0.3014
vn -0.0181 0.6711 -0.7411
vn -0.0007 0.9881 -0.1540
vn -0.0583 0.9983 0.0094
vn -0.0583 0.9982 0.0103
vn -0.0585 0.9982 0.0148
vn 0.0021 0.9999 0.0160
vn 0.8745 -0.4742 0.1017
vn 0.8791 -0.4767 0.0000
vn -0.0467 -0.0760 -0.9960
vn -0.0227 -0.9194 0.3926
vn -0.0225 -0.9194 0.3926
vn -0.0392 -0.8550 -0.5172
vn 0.0227 -0.8890 -0.4573
vn -0.0452 -0.9192 0.3911
vn 0.0452 -0.9192 -0.3912
vn 0.3935 -0.9193 0.0027
vn 0.0085 -0.0850 0.9963
vn 0.0554 0.7918 0.6083
vn -0.0021 0.9999 0.0160
vn 0.7992 -0.5878 -0.1260
vn 0.8745 -0.4742 -0.1016
vn 0.0587 0.9981 0.0198
vn -0.0033 1.0000 -0.0093
vn 0.0010 1.0000 -0.0003
vn 0.0016 1.0000 0.0022
vn -0.1381 0.5092 -0.8495
vn -0.9059 0.3776 -0.1916
vn -0.0000 0.9995 -0.0319
vn -0.0092 0.9994 -0.0319
vn 0.3362 -0.9209 0.1973
vn 0.0092 0.9995 -0.0318
vn 0.9059 0.3776 -0.1916
vn -0.9063 0.3827 0.1793
vn -0.9276 0.3429 -0.1482
vn -0.0587 0.9981 0.0198
vn -0.9978 0.0663 -0.0042
vn 0.9978 0.0663 -0.0042
vn 0.8700 -0.1690 -0.4632
vn 0.4650 -0.3819 -0.7987
vn -0.8700 -0.1690 -0.4632
vn -0.4650 -0.3819 -0.7987
usemtl Material
s 1
f 4//1 3//1 1//1 2//1
f 120//2 123//2 127//3 128//4
f 178//5 177//5 20//5 23//5
f 51//1 193//6 192//7 35//1 54//1
f 17//8 18//8 14//8 13//8
f 112//9 9//10 199//11 198//9
f 187//12 184//12 183//12 181//12
f 127//3 108//13 109//13 179//13 176//13 177//13
f 99//14 107//14 131//14 132//14
f 32//15 12//16 90//16 89//16 88//16 27//17
f 116//18 105//18 113//18
f 113//19 103//20 8//21 189//19 190//19 6//19
f 176//12 179//12 21//12 19//12
f 206//22 209//23 208//24 207//25
f 15//26 38//26 41//26 26//26
f 16//27 32//15 27//17 22//27
f 15//28 38//28 30//29 9//29
f 12//30 39//30 37//30 11//30
f 22//31 14//31 18//31 16//31
f 5//32 102//33 145//33 103//33 113//33 105//33 106//33 124//33 110//34 111//35
f 11//36 37//36 38//36 15//36 13//36 14//36 22//36 27//36
f 39//37 12//37 32//37 16//37 18//37 17//37 26//37 41//37
f 7//38 36//38 35//38 8//38
f 13//39 15//39 26//39 17//39
f 5//40 40//41 188//41 99//41 132//41 29//40
f 149//42 151//42 157//43 156//43
f 134//44 136//44 135//44 133//44
f 111//35 104//45 202//46 197//47
f 23//1 20//1 19//1 21//1
f 185//37 187//37 181//37 180//37
f 179//37 178//37 23//37 21//37
f 28//12 137//12 129//12 25//12
f 169//1 174//1 170//1 164//1
f 10//48 188//48 203//48
f 109//30 108//30 133//30 135//30
f 38//44 37//44 39//44 41//44
f 43//5 34//5 24//5 31//5
f 42//36 33//36 34//36 43//36
f 168//49 169//50 164//51 165//52
f 28//12 25//12 33//12 42//12
f 183//53 182//53 180//53 181//53
f 198//54 201//54 202//54
f 138//5 31//5 24//5 130//5
f 148//55 146//56 155//57 150//57
f 188//48 40//48 203//48
f 202//58 201//58 197//58
f 164//1 170//1 173//1 166//1
f 54//1 35//1 36//59 57//59
f 199//60 200//60 195//60 196//60
f 140//1 143//1 131//1 207//25 208//24
f 119//61 9//29 30//29 134//61
f 137//37 138//37 130//37 129//37
f 144//62 143//62 140//62 141//62
f 54//63 57//64 58//65 55//63
f 55//66 58//67 56//68 53//66
f 53//69 50//69 52//69 55//69
f 55//70 52//70 51//70 54//70
f 69//57 71//57 66//57 59//57
f 57//64 63//71 60//71 58//65
f 191//72 194//73 41//74 26//74 6//75
f 48//57 77//76 75//77 49//57
f 165//52 164//51 166//78 167//79
f 170//80 171//81 172//82 173//83
f 171//81 141//57 140//57 172//82
f 57//59 36//59 29//1 44//1 72//1 73//1 62//1 64//1 63//1
f 108//37 127//37 123//37 118//37 117//37 119//37 134//37 133//37
f 68//1 72//1 44//1 46//1 45//1 70//1
f 62//84 59//85 61//85 64//84
f 64//86 61//87 60//87 63//86
f 59//85 66//88 67//88 61//85
f 61//87 67//89 65//89 60//87
f 58//67 60//57 65//57 56//68
f 72//90 68//91 69//91 73//90
f 68//91 70//92 71//92 69//91
f 48//57 49//57 165//52 167//79
f 47//1 31//1 138//1 137//1 28//1 45//1 160//1 161//1 156//1 157//1 155//1 146//1 142//1 139//1 175//1 174//1 169//1 168//1
f 200//93 100//93 195//93
f 5//32 111//35 197//47 201//94 196//94 195//94 100//94 10//94 203//94 40//94
f 128//4 127//3 177//13 178//13 179//13 109//13
f 9//10 86//95 100//95 200//95 199//11
f 134//59 30//59 48//59 167//59 166//59 173//59 172//59 140//1 208//24 209//23 136//59
f 162//96 163//96 159//97 158//97
f 119//26 126//26 136//26 134//26
f 73//71 69//71 59//71 62//71
f 47//1 78//1 79//1 84//1 85//1 50//1 53//1 56//1 65//1 67//1 66//1 71//1 70//1 45//1 28//1 42//1 43//1 31//1
f 85//98 81//99 52//100 50//100
f 79//1 74//1 80//1 84//1
f 74//1 76//1 83//1 80//1
f 75//77 77//76 76//101 74//102
f 78//103 75//77 74//102 79//104
f 49//100 75//77 78//103 47//100
f 84//105 80//106 81//99 85//98
f 80//106 83//107 82//108 81//99
f 81//99 82//108 51//57 52//57
f 152//109 154//109 151//42 149//42
f 175//110 139//100 141//100 171//81
f 121//111 117//111 118//111 122//111
f 117//112 121//112 126//112 119//112
f 147//59 153//1 154//1 152//1 163//1 162//1 44//1 29//1 132//59
f 100//113 86//113 205//113 204//113 107//114 10//115
f 135//36 136//36 126//36 121//36 122//36 120//36 128//36 109//36
f 10//116 99//116 188//116
f 89//5 4//5 2//5 88//5
f 90//36 3//36 4//36 89//36
f 27//17 88//16 87//16 90//16 12//16 11//16
f 87//12 1//12 3//12 90//12
f 88//37 2//37 1//37 87//37
f 94//53 92//53 91//53 93//53
f 98//12 92//12 94//12 95//12
f 97//5 93//5 91//5 96//5
f 96//36 91//36 92//36 98//36
f 97//16 96//16 98//16 95//16
f 95//37 94//37 93//37 97//37
f 154//117 153//117 150//118 151//118
f 158//1 160//1 45//1 46//1 44//1 162//1
f 123//119 120//119 122//119 118//119
f 147//120 148//121 150//71 153//71
f 206//22 86//122 126//123 136//123 209//23
f 159//57 149//57 156//57 161//57
f 143//1 147//59 132//59 131//1
f 143//124 144//124 148//121 147//120
f 49//100 47//100 168//49 165//52
f 144//125 142//125 146//56 148//55
f 163//71 152//71 149//71 159//71
f 142//126 144//126 141//126 139//126
f 5//40 29//40 36//127 7//127 101//127 102//127
f 103//128 145//128 101//128
f 103//129 101//129 7//129
f 158//97 159//97 161//130 160//130
f 151//118 150//118 155//131 157//131
f 186//5 185//5 180//5 182//5
f 103//20 7//132 8//21
f 38//59 41//59 194//73 193//6 51//1 82//59 83//59 76//59 77//59 48//59 30//59
f 111//35 110//34 125//133 104//45
f 9//10 115//134 116//135 113//135 6//135
f 115//136 106//136 105//136 116//136
f 124//137 106//137 115//137 114//137
f 104//138 125//139 114//139 112//138
f 174//140 175//110 171//81 170//80
f 177//36 176//36 19//36 20//36
f 186//13 184//13 187//13 185//13
f 184//36 186//36 182//36 183//36
f 104//138 112//138 198//141 202//141
f 112//9 114//9 115//134 9//10
f 201//142 198//142 199//142 196//142
f 114//143 125//143 124//143
f 125//144 110//144 124//144
f 10//115 107//114 99//145
f 101//128 145//128 102//128
f 131//146 107//146 204//146 207//146
f 35//147 192//147 189//147 8//147
f 191//72 192//7 193//6 194//73
f 191//72 190//148 189//148 192//7
f 190//149 191//72 6//75
f 206//22 207//25 204//150 205//150
f 205//151 86//122 206//22
